<?xml version="1.0" standalone="no"?><svg xmlns="http://www.w3.org/2000/svg" viewBox="0 0 1440 320"><path fill="#fff" fill-opacity="1" d="M0,32L40,74.7C80,117,160,203,240,202.7C320,203,400,117,480,117.3C560,117,640,203,720,229.3C800,256,880,224,960,186.7C1040,149,1120,107,1200,85.3C1280,64,1360,64,1400,64L1440,64L1440,320L1400,320C1360,320,1280,320,1200,320C1120,320,1040,320,960,320C880,320,800,320,720,320C640,320,560,320,480,320C400,320,320,320,240,320C160,320,80,320,40,320L0,320Z"></path></svg>